<svg xmlns="http://www.w3.org/2000/svg" width="1200" height="630" viewBox="0 0 1200 630">
  <defs>
    <radialGradient id="g1" cx="0.5" cy="0.25" r="0.95">
      <stop offset="0%" stop-color="#B45309" stop-opacity="0.26"/>
      <stop offset="60%" stop-color="#B45309" stop-opacity="0.05"/>
      <stop offset="100%" stop-color="#B45309" stop-opacity="0"/>
    </radialGradient>
  </defs>
  <rect width="1200" height="630" fill="#0c0c0c"/>
  <rect width="1200" height="630" fill="url(#g1)"/>
  <g fill="#ffffff">
    <circle cx="120" cy="80" r="1.5" opacity="0.45"/><circle cx="420" cy="60" r="1.1" opacity="0.35"/>
    <circle cx="760" cy="100" r="1.4" opacity="0.4"/><circle cx="1100" cy="70" r="1.2" opacity="0.35"/>
  </g>
  <rect x="60" y="52" width="2" height="60" fill="#B45309" opacity="0.8"/>
  <rect x="66" y="52" width="2" height="60" fill="#B45309" opacity="0.4"/>
  <line x1="76" y1="52" x2="76" y2="112" stroke="#B45309" stroke-opacity="0.2" stroke-width="1"/>
  <circle cx="94" cy="68" r="3" fill="#B45309" opacity="0.9"/>
  <circle cx="94" cy="82" r="3" fill="#B45309" opacity="0.55"/>
  <circle cx="94" cy="96" r="3" fill="#B45309" opacity="0.3"/>
  <text x="60" y="150" font-family="'Times New Roman', 'Liberation Serif', 'SimSun', 'Songti SC', 'Noto Serif CJK SC', serif" font-size="18" letter-spacing="5" fill="#FBBF24">FOUR HARDEST PROBLEMS</text>
  <text x="60" y="216" font-family="'Times New Roman', 'Liberation Serif', 'SimSun', 'Songti SC', 'Noto Serif CJK SC', serif" font-size="48" font-weight="bold" fill="#ffffff">The Four Hardest Problems</text>
  <text x="60" y="262" font-family="'Times New Roman', 'Liberation Serif', 'SimSun', 'Songti SC', 'Noto Serif CJK SC', serif" font-size="22" fill="#a3a3a3">Each one went from symptom → analysis → fix</text>

  <g font-family="'Times New Roman', 'Liberation Serif', 'SimSun', 'Songti SC', 'Noto Serif CJK SC', serif">
    <rect x="60" y="312" width="1080" height="62" rx="12" fill="#171310" stroke="#B45309" stroke-opacity="0.35"/>
    <circle cx="98" cy="343" r="16" fill="#B45309" opacity="0.9"/>
    <text x="98" y="350" font-size="20" font-weight="bold" fill="#0c0c0c" text-anchor="middle">1</text>
    <text x="140" y="338" font-size="22" font-weight="bold" fill="#fbbf24">The Chain Reaction of overflow-x: hidden</text>
    <text x="140" y="362" font-size="17" fill="#a3a3a3">A seemingly harmless CSS property caused cross-file problems</text>

    <rect x="60" y="386" width="1080" height="62" rx="12" fill="#171310" stroke="#B45309" stroke-opacity="0.35"/>
    <circle cx="98" cy="417" r="16" fill="#B45309" opacity="0.9"/>
    <text x="98" y="424" font-size="20" font-weight="bold" fill="#0c0c0c" text-anchor="middle">2</text>
    <text x="140" y="412" font-size="22" font-weight="bold" fill="#fbbf24">The Optical Overlap of Two Buttons</text>
    <text x="140" y="436" font-size="17" fill="#a3a3a3">z-index layering → hamburger animates to X, one place to close</text>

    <rect x="60" y="460" width="1080" height="62" rx="12" fill="#171310" stroke="#B45309" stroke-opacity="0.35"/>
    <circle cx="98" cy="491" r="16" fill="#B45309" opacity="0.9"/>
    <text x="98" y="498" font-size="20" font-weight="bold" fill="#0c0c0c" text-anchor="middle">3</text>
    <text x="140" y="486" font-size="22" font-weight="bold" fill="#fbbf24">Clicking Blank Space Doesn't Close</text>
    <text x="140" y="510" font-size="17" fill="#a3a3a3">"Any click in the overlay closes it" — 11 lines became 4</text>

    <rect x="60" y="534" width="1080" height="62" rx="12" fill="#171310" stroke="#B45309" stroke-opacity="0.35"/>
    <circle cx="98" cy="565" r="16" fill="#B45309" opacity="0.9"/>
    <text x="98" y="572" font-size="20" font-weight="bold" fill="#0c0c0c" text-anchor="middle">4</text>
    <text x="140" y="560" font-size="22" font-weight="bold" fill="#fbbf24">Cloudflare Pages Subdomain Trap</text>
    <text x="140" y="584" font-size="17" fill="#a3a3a3">Display name and subdomain are separate — redeploy to get galvinai</text>
  </g>
</svg>
